<svg xmlns="http://www.w3.org/2000/svg" viewBox="0 0 1364 960"><path fill="#E3F0FF" d="M1233.915 445.771c-42.751-49.583-118.218-52.774-154.757-134.596-29.454-65.957-3.381-103.269-34.099-132.007-64.357-60.209-210.09 74.301-335.743 10.354-57.506-29.266-44.361-66.273-107.543-98.358-92.175-46.808-236.218-27.003-288.53 49.179-52.408 76.323 32.145 143.855-13.115 248.485C249.395 506.11 108.371 501.67 90.289 590.721c-8.08 39.795.416 127.929 116.076 222.601 160.944 95.779 290.138 5.325 482.779-7.37 151.325-9.972 325.383 180.636 491.96-28.902 150.461-189.267 94.09-283.403 52.811-331.279z"/><path fill="#B0D5FF" d="M1199.354 329.888c1.242-2.741.486-6.13-1.449-8.429-1.935-2.299-4.875-3.59-7.852-4.006-2.977-.415-6.011-.028-8.959.568-4.878.986-9.779 2.639-13.719 5.611a142.403 142.403 0 0 1 5.113-21.297c.204-.633.42-1.262.633-1.892l14.5 5.84c3.225 1.299 6.549 2.618 10.026 2.619 3.478.001 7.193-1.631 8.629-4.802 1.242-2.741.486-6.13-1.449-8.43s-4.875-3.59-7.852-4.006c-2.977-.416-6.011-.028-8.959.568-5.031 1.017-10.09 2.742-14.09 5.895a145.203 145.203 0 0 1 10.067-22.141l14.919 5.354c3.272 1.174 6.645 2.364 10.12 2.232 3.476-.133 7.125-1.905 8.439-5.13 1.136-2.787.251-6.144-1.771-8.367-2.022-2.223-5.009-3.4-8-3.702-2.991-.301-6.008.203-8.931.911-4.68 1.135-9.36 2.89-13.122 5.83a143.147 143.147 0 0 1 9.862-14.585 138.853 138.853 0 0 1 3.27-4.062l15.525 5c3.309 1.066 6.719 2.145 10.189 1.898 3.469-.246 7.058-2.138 8.266-5.404 1.043-2.823.049-6.148-2.045-8.304-2.094-2.156-5.118-3.234-8.118-3.437-2.999-.202-5.998.4-8.896 1.204-4.141 1.149-8.263 2.796-11.707 5.312a137.076 137.076 0 0 1 12.618-12.383l15.631-2.921c3.42-.639 6.934-1.314 9.87-3.183 2.937-1.869 5.196-5.241 4.705-8.685-.424-2.978-2.881-5.427-5.75-6.324-2.868-.897-6.043-.404-8.779.845-2.736 1.25-5.089 3.207-7.258 5.294-3.996 3.845-7.577 8.401-9.1 13.701-.016.012-.031.019-.046.033a138.32 138.32 0 0 0-13.403 13.206c1.652-4.157 2.144-8.799 2.107-13.309-.025-3.008-.27-6.058-1.291-8.886-1.02-2.829-2.888-5.44-5.536-6.86-2.649-1.421-6.119-1.462-8.545.318-2.807 2.059-3.638 6.031-2.92 9.435.718 3.404 2.693 6.386 4.628 9.274l8.841 13.198a142.955 142.955 0 0 0-13.273 18.81c.742-4.65.06-9.528-1.156-14.119-.77-2.907-1.765-5.799-3.455-8.284-1.69-2.486-4.148-4.55-7.067-5.268-2.919-.718-6.292.104-8.202 2.43-2.209 2.691-2.029 6.744-.49 9.861 1.54 3.118 4.194 5.515 6.786 7.832l11.836 10.58c-.118.211-.24.419-.358.631a147.415 147.415 0 0 0-9.768 21.649c.16-5.274-1.63-10.514-4.002-15.266-1.342-2.69-2.902-5.319-5.06-7.41-2.159-2.091-4.985-3.614-7.989-3.726-3.005-.111-6.143 1.377-7.542 4.041-1.619 3.082-.623 7.013 1.516 9.754 2.139 2.74 5.224 4.549 8.232 6.292l14.178 8.216-.106.314-.15.039.12.048a144.867 144.867 0 0 0-5.657 22.405c-1.731-4.412-4.79-8.312-8.167-11.698-2.164-2.168-4.517-4.209-7.277-5.538-2.76-1.329-5.983-1.894-8.924-1.039s-5.498 3.298-5.994 6.32c-.575 3.496 1.653 6.975 4.603 8.937 2.951 1.962 6.515 2.721 9.985 3.441l14.782 3.069.425.171a138.08 138.08 0 0 0-1.242 25.419c.039.897 1.448 1.006 1.407.098-.368-8.347.04-16.709 1.185-24.973l13.756 5.541c3.224 1.299 6.549 2.618 10.026 2.619 3.48.006 7.195-1.626 8.631-4.797zM163.409 529.264c-1.38-3.367 1.097-7.351 4.468-8.7 3.371-1.349 7.226-.668 10.668.529 5.567 1.936 10.219 4.883 14.944 8.177a241.493 241.493 0 0 1-7.885-14.359 248.998 248.998 0 0 1-4.681-9.761c-7.592 3.054-16.107 3.787-24.105 2.049-3.032-.659-6.335-1.971-7.505-4.844-1.367-3.357 1.111-7.342 4.473-8.697 3.362-1.355 7.2-.685 10.625.5 5.751 1.991 10.517 5.074 15.401 8.501-4.478-10.187-8.241-20.694-11.063-31.449-7.879 1.714-16.263 1.068-23.773-1.873-2.889-1.131-5.943-2.949-6.642-5.972-.817-3.531 2.262-7.072 5.796-7.877 3.533-.806 7.217.464 10.411 2.179 5.175 2.777 9.283 6.412 13.41 10.4-2.797-11.384-4.655-23.447-3.067-35.096.033-.242.077-.484.112-.726-8.128.632-16.44-1.204-23.531-5.231-2.698-1.532-5.461-3.768-5.722-6.859-.304-3.612 3.249-6.677 6.861-6.97 3.612-.293 7.077 1.49 9.993 3.643 5.138 3.792 8.884 8.408 12.709 13.405 2.2-13.406 6.882-26.464 8.618-39.925-8.261.73-16.736-1.096-23.949-5.193-2.698-1.532-5.461-3.768-5.721-6.859-.304-3.611 3.249-6.676 6.861-6.969 3.612-.293 7.077 1.49 9.993 3.642 5.277 3.894 9.084 8.657 13.018 13.809.374-3.372.553-6.769.444-10.207-.22-6.961-1.929-13.806-4.734-20.243-7.933 3.012-16.806 3.502-25.016 1.354-3.001-.786-6.247-2.235-7.295-5.155-1.224-3.411 1.419-7.289 4.834-8.502 3.415-1.213 7.222-.382 10.594.946 6.184 2.436 11.139 6.123 16.342 10.151-4.742-10.293-12.279-19.467-21.021-26.265-7.477 1.836-15.472 1.546-22.783-.874-2.945-.975-6.093-2.628-6.952-5.608-1.005-3.483 1.88-7.184 5.366-8.177 3.485-.993 7.232.078 10.513 1.619 5.233 2.457 9.479 5.8 13.745 9.492.207.036.417.119.624.273 7.57 5.62 13.949 12.776 18.911 20.779a84.916 84.916 0 0 1 3.096 5.43c-.703-7.456.646-15.105 3.911-21.848 1.352-2.792 3.403-5.696 6.471-6.158 3.584-.54 6.875 2.805 7.403 6.39.529 3.586-1.024 7.159-2.981 10.211-3.65 5.69-8.323 9.883-13.381 14.288 1.856 3.972 3.341 8.112 4.213 12.402 1.322 6.497 1.341 12.976.645 19.421 2.74-7.223 7.538-13.661 13.71-18.312 2.477-1.867 5.628-3.515 8.568-2.526 3.435 1.155 4.836 5.634 3.67 9.065-1.166 3.431-4.179 5.902-7.312 7.724-6.005 3.489-12.25 5.081-18.963 6.738-1.455 10.595-4.637 21.092-6.954 31.416-.729 3.25-1.361 6.496-1.815 9.76 2.575-7.984 7.645-15.147 14.339-20.205 2.475-1.87 5.623-3.522 8.564-2.537 3.437 1.151 4.844 5.628 3.682 9.06-1.162 3.433-4.171 5.908-7.302 7.733-6.137 3.577-12.527 5.169-19.414 6.877-.446 3.484-.67 6.992-.552 10.551.217 6.511 1.173 12.99 2.519 19.357.357 1.693.747 3.38 1.159 5.062 1.636-7.429 5.355-14.398 10.655-19.86 2.16-2.226 5.019-4.339 8.076-3.815 3.572.613 5.647 4.822 5.023 8.391-.624 3.57-3.22 6.476-6.036 8.758-5.203 4.217-10.897 6.724-17.015 9.292 2.759 10.507 6.514 20.773 10.901 30.711-.25-7.936 1.831-15.938 5.959-22.722 1.613-2.65 3.932-5.345 7.03-5.511 3.619-.194 6.576 3.449 6.758 7.069.184 3.62-1.703 7.028-3.943 9.878-4.25 5.407-9.407 9.172-14.972 13.148a268.063 268.063 0 0 0 1.804 3.923c3.363 7.139 7.061 14.153 11.137 20.938-.125-7.732 1.956-15.496 5.978-22.105 1.613-2.65 3.932-5.344 7.029-5.512 3.619-.194 6.576 3.45 6.759 7.069.183 3.619-1.704 7.028-3.944 9.878-4.133 5.259-9.123 8.964-14.512 12.821 4.738 7.679 9.974 15.046 15.78 21.938 1.209 1.436-1.101 3.212-2.308 1.779-5.862-6.96-11.135-14.411-15.913-22.167-7.631 3.06-16.201 3.782-24.258 2.015-3.051-.669-6.371-1.991-7.553-4.872z"/><path fill="#F5885B" d="m1146.375 495.345 2.359 6.686c3.323-5.586 6.682-11.23 11.162-15.94 13.314-13.995 34.252-17.593 53.566-17.19 19.307.395 38.717 3.985 57.824 1.137 5.419-.804 11.591-2.843 13.362-8.026a8.94 8.94 0 0 0 .442-3.293c-8.237-2.717-16.615-4.979-25.138-6.605-13.254-2.529-26.878-3.522-40.333-2.143-11.079 1.14-22.007 3.937-32.198 8.452-10.048 4.445-19.4 10.602-27.105 18.465-3.991 4.073-7.374 8.595-10.523 13.339-1.134 1.706-2.25 3.423-3.418 5.118z"/><path fill="#FF996E" d="m1142.898 485.475 3.192 9.061.285.809c1.168-1.695 2.284-3.412 3.418-5.118 3.149-4.744 6.532-9.266 10.523-13.339 7.705-7.864 17.057-14.021 27.105-18.465 10.191-4.515 21.118-7.312 32.198-8.452 13.454-1.379 27.078-.385 40.333 2.143 8.523 1.625 16.901 3.887 25.138 6.605a6.62 6.62 0 0 0-.061-.757c-.238-2.186-1.134-4.361-2.278-6.269-5.647-9.448-16.62-14.333-27.318-16.942-33.427-8.155-70.67 1.53-95.903 24.928-7.615 7.065-14.367 15.657-16.632 25.796z"/><path fill="#FFC0A6" d="m1146.09 494.536.285.809c1.168-1.695 2.284-3.412 3.418-5.118 3.149-4.744 6.532-9.266 10.523-13.339 7.705-7.864 17.057-14.021 27.105-18.465 10.191-4.515 21.118-7.312 32.198-8.452 13.454-1.379 27.078-.385 40.333 2.143 8.523 1.625 16.901 3.887 25.138 6.605a6.62 6.62 0 0 0-.061-.757c-9.742-3.195-19.693-5.755-29.816-7.382-13.056-2.102-26.464-2.646-39.589-.822-11.008 1.527-21.82 4.697-31.812 9.583-9.87 4.819-18.946 11.35-26.304 19.528-3.912 4.357-7.104 9.207-10.339 14.064-.355.537-.716 1.067-1.079 1.603z"/><path fill="#3A67B3" d="m1132.269 367.609-5.89 38.679c3.936-2.237 8.128-4.089 12.192-6.007 3.998-1.886 7.984-3.883 11.613-6.448 3.69-2.607 6.647-5.821 9.314-9.443 2.58-3.503 5.005-7.171 8.278-10.095 2.569-2.304 5.616-3.993 8.802-5.29 6.603-2.7 13.716-3.802 20.381-6.308 3.359-1.254 6.573-2.887 9.346-5.179 3.348-2.76 5.948-6.289 8.404-9.83 2.453-3.533 4.802-7.165 7.699-10.362a38.35 38.35 0 0 1 8.472-6.981c6.283-3.845 13.507-5.981 20.799-6.759 17.852-1.918 35.103 4.613 51.141 11.714.947.421 1.893.843 2.845 1.275 2.478-9.945-11.26-19.547-20.275-22.31-6.167-1.888-12.859-.459-19.235-1.385-32.321-4.667-52.18-18.127-71.62 17.43-2.172 3.982-4.142 8.271-7.664 11.128-15.721 10.955-50.777-1.726-54.602 26.171z"/><path fill="#325899" d="M1148.427 449.622c25.224 12.545 54.533-7.266 40.821-38.68-10.14-16.535 6.251-24.27 20.353-26.154 6.999-.944 15.356-.35 19.65-5.961 7.834-12.98-8.064-32.575 22.122-36.249 17.034-2.081 46.245 16.01 53.963-4.928.035-.098.073-.203.101-.304-15.217-6.848-31.21-13.579-48.147-13.305-7.436.121-14.931 1.551-21.703 4.69-3.307 1.53-6.428 3.484-9.209 5.851-3.093 2.638-5.609 5.803-7.948 9.117-2.469 3.509-4.771 7.153-7.575 10.417-2.465 2.874-5.328 5.308-8.67 7.112-6.038 3.256-12.857 4.559-19.385 6.481-3.317.985-6.628 2.13-9.676 3.802-3.482 1.924-6.325 4.568-8.79 7.677-2.691 3.401-4.979 7.113-7.934 10.301-2.848 3.087-6.289 5.544-9.921 7.628-6.547 3.772-13.722 6.365-20.249 10.171.002-.001-6.179 28.222 22.197 42.334z"/><path fill="#035875" d="m1126.379 406.288-.148.999c6.527-3.806 13.702-6.399 20.249-10.171 3.632-2.084 7.073-4.541 9.921-7.628 2.954-3.188 5.243-6.9 7.934-10.301 2.465-3.109 5.308-5.754 8.79-7.677 3.048-1.672 6.358-2.817 9.676-3.802 6.527-1.922 13.346-3.225 19.385-6.481 3.341-1.803 6.204-4.238 8.67-7.112 2.804-3.263 5.106-6.908 7.575-10.417 2.338-3.314 4.855-6.479 7.948-9.117 2.781-2.367 5.901-4.321 9.209-5.851 6.772-3.139 14.266-4.569 21.703-4.69 16.937-.275 32.931 6.456 48.147 13.305.088-.257.166-.511.229-.771-.951-.432-1.898-.853-2.845-1.275-16.039-7.1-33.29-13.632-51.141-11.714-7.292.779-14.516 2.914-20.799 6.759a38.35 38.35 0 0 0-8.472 6.981c-2.897 3.196-5.246 6.829-7.699 10.362-2.456 3.54-5.056 7.07-8.404 9.83-2.773 2.292-5.987 3.925-9.346 5.179-6.665 2.506-13.778 3.609-20.381 6.308-3.186 1.297-6.233 2.986-8.802 5.29-3.273 2.924-5.699 6.592-8.278 10.095-2.667 3.621-5.624 6.835-9.314 9.443-3.629 2.565-7.614 4.562-11.613 6.448-4.066 1.919-8.258 3.771-12.194 6.008z"/><path fill="#FFF" d="m1126.379 406.288-.148.999c6.527-3.806 13.702-6.399 20.249-10.171 3.632-2.084 7.073-4.541 9.921-7.628 2.954-3.188 5.243-6.9 7.934-10.301 2.465-3.109 5.308-5.754 8.79-7.677 3.048-1.672 6.358-2.817 9.676-3.802 6.527-1.922 13.346-3.225 19.385-6.481 3.341-1.803 6.204-4.238 8.67-7.112 2.804-3.263 5.106-6.908 7.575-10.417 2.338-3.314 4.855-6.479 7.948-9.117 2.781-2.367 5.901-4.321 9.209-5.851 6.772-3.139 14.266-4.569 21.703-4.69 16.937-.275 32.931 6.456 48.147 13.305.088-.257.166-.511.229-.771-.951-.432-1.898-.853-2.845-1.275-16.039-7.1-33.29-13.632-51.141-11.714-7.292.779-14.516 2.914-20.799 6.759a38.35 38.35 0 0 0-8.472 6.981c-2.897 3.196-5.246 6.829-7.699 10.362-2.456 3.54-5.056 7.07-8.404 9.83-2.773 2.292-5.987 3.925-9.346 5.179-6.665 2.506-13.778 3.609-20.381 6.308-3.186 1.297-6.233 2.986-8.802 5.29-3.273 2.924-5.699 6.592-8.278 10.095-2.667 3.621-5.624 6.835-9.314 9.443-3.629 2.565-7.614 4.562-11.613 6.448-4.066 1.919-8.258 3.771-12.194 6.008z"/><path fill="#325899" d="m220.998 754.827-4.794 6.952c-2.081-7.457-4.186-14.992-7.869-21.803-10.949-20.237-33.902-30.893-56.232-36.445-22.321-5.558-45.755-7.475-66.836-16.7-5.98-2.611-12.441-6.879-12.863-13.388-.08-1.348.11-2.662.517-3.924 10.316-.559 20.652-.551 30.958.234 16.026 1.22 31.999 4.321 47.039 10.096 12.383 4.761 24.076 11.379 34.386 19.744 10.168 8.239 19.003 18.23 25.413 29.671 3.32 5.926 5.802 12.179 7.945 18.613.773 2.317 1.52 4.638 2.336 6.95z"/><path fill="#3A67B3" d="m228.069 744.563-6.492 9.423-.579.841c-.815-2.313-1.563-4.634-2.336-6.949-2.143-6.435-4.625-12.687-7.945-18.613-6.41-11.441-15.245-21.432-25.413-29.671-10.311-8.365-22.003-14.984-34.386-19.744-15.04-5.775-31.013-8.875-47.039-10.096-10.305-.786-20.642-.794-30.958-.234.086-.288.188-.575.306-.851.954-2.44 2.662-4.66 4.571-6.498 9.435-9.104 23.572-11.303 36.684-10.972 40.971 1.033 80.774 23.767 102.499 58.526 6.554 10.494 11.641 22.475 11.088 34.838z"/><path fill="#FFF" d="m221.577 753.986-.579.841c-.815-2.313-1.563-4.634-2.336-6.949-2.143-6.435-4.625-12.687-7.945-18.613-6.41-11.441-15.245-21.432-25.413-29.671-10.311-8.365-22.003-14.984-34.386-19.744-15.04-5.775-31.013-8.875-47.039-10.096-10.305-.786-20.642-.794-30.958-.234.086-.288.188-.575.306-.851 12.196-.639 24.434-.484 36.579.798 15.665 1.649 31.25 5.199 45.772 11.383 12.181 5.184 23.625 12.195 33.59 20.924 9.847 8.614 18.248 18.95 24.161 30.644 3.141 6.227 5.3 12.797 7.507 19.389.241.729.491 1.45.741 2.179z"/><path fill="#F5885B" d="M186.577 568.183c8.797 16.675 33.936 21.126 43.869 37.75 5.33 9.788 1.199 19.381-.61 28.64-1.777 16.938-2.776 36.042 4.39 54.136 3.853 8.215 10.546 15.838 12.905 24.214-7.795-.311-17.144-1.976-26.318-4.98-.174-.192-.35-.394-.519-.591-6.62-7.782-11.314-17.453-10.693-27.876.563-9.49 4.931-19.106 2.197-28.603-1.496-5.197-5.085-9.395-8.464-13.477-3.487-4.218-6.592-8.482-8.171-13.786-2.642-8.849-2.039-19.239-7.866-26.898-3.56-4.669-9.033-7.028-13.957-9.922-2.756-1.615-5.385-3.476-7.403-5.983-1.723-2.14-2.99-4.588-3.996-7.133-1.984-5.021-3.039-10.348-4.942-15.398-1.927-5.125-4.935-9.68-8.694-13.648-8.213-8.662-18.978-14.125-28.908-20.495-8.981-5.767-18.134-12.799-22.896-22.631a24.3 24.3 0 0 1-.465-1.013c1.07-1.247 2.541-2.266 4.452-2.988 16.832-3.984 29.606 19.674 44.602 26.478 17.88 6.125 32.642 4.273 36.639 26.703 1.192 5.852 1.768 11.849 4.848 17.501z"/><path fill="#FFA078" d="M119.396 524.133c9.929 6.37 20.694 11.833 28.908 20.495 3.76 3.968 6.768 8.523 8.694 13.648 1.903 5.049 2.958 10.377 4.942 15.398 1.006 2.545 2.274 4.994 3.996 7.133 2.018 2.507 4.647 4.369 7.403 5.983 4.924 2.894 10.397 5.253 13.957 9.922 5.827 7.658 5.224 18.048 7.866 26.898 1.579 5.304 4.684 9.568 8.171 13.786 3.38 4.082 6.969 8.279 8.464 13.477 2.735 9.497-1.634 19.112-2.197 28.603-.62 10.423 4.073 20.094 10.693 27.876.169.197.345.4.519.591-.467-.149-.93-.303-1.393-.468-21.136-7.24-40.867-21.617-37.92-42.983 3.851-9.967 8.001-17.812-5.954-26.609-21.391-17.064-49.309-27.403-43.954-55.325 1.522-12.57 9.5-30.63-3.637-42.958-5.872-4.165-13.031-5.244-18.991-9.234-11.065-6.32-19.014-21.408-13.458-29.203.155-.233.331-.458.53-.675.146.34.304.68.465 1.013 4.762 9.834 13.914 16.866 22.896 22.632z"/><path fill="#FFF" d="M119.396 524.133c9.929 6.37 20.694 11.833 28.908 20.495 3.76 3.968 6.768 8.523 8.694 13.648 1.903 5.049 2.958 10.377 4.942 15.398 1.006 2.545 2.274 4.994 3.996 7.133 2.018 2.507 4.647 4.369 7.403 5.983 4.924 2.894 10.397 5.253 13.957 9.922 5.827 7.658 5.224 18.048 7.866 26.898 1.579 5.304 4.684 9.568 8.171 13.786 3.38 4.082 6.969 8.279 8.464 13.477 2.735 9.497-1.634 19.112-2.197 28.603-.62 10.423 4.073 20.094 10.693 27.876.169.197.345.4.519.591-.467-.149-.93-.303-1.393-.468a55.768 55.768 0 0 1-4.366-5.974c-2.469-3.918-4.393-8.194-5.413-12.713-1.084-4.809-.957-9.644-.18-14.493.799-4.945 2.109-9.829 2.411-14.842.355-5.731-1.114-10.868-4.388-15.596-3.207-4.624-7.339-8.557-10.205-13.432-2.408-4.106-3.516-8.725-4.36-13.364-.874-4.844-1.467-9.809-3.237-14.434-2.145-5.62-6.212-9.262-11.354-12.204-4.977-2.843-10.249-5.34-13.694-10.114-3.05-4.228-4.506-9.335-5.94-14.273-1.582-5.45-3.286-10.762-6.514-15.489-3.443-5.029-8.007-9.177-12.873-12.785-14.64-10.868-36.031-19.053-43.802-36.6.155-.233.331-.458.53-.675.146.34.304.68.465 1.013 4.763 9.835 13.915 16.867 22.897 22.633z"/><path fill="#4873BD" d="M1121.054 180.537H246.413c-27.022 0-48.919 23.571-48.919 52.666v594.734c0 29.093 21.898 52.763 48.919 52.763h874.641c27.024 0 48.919-23.67 48.919-52.763V233.203c0-29.095-21.895-52.666-48.919-52.666zm35.406 643.157c0 25.644-21.303 46.352-47.636 46.352h-850.28c-26.234 0-47.537-20.708-47.537-46.352V300.568c0-25.644 21.303-46.454 47.537-46.454h850.28c26.333 0 47.636 20.809 47.636 46.454v523.126z"/><path fill="#FFF" d="M1156.46 300.568v523.127c0 25.644-21.303 46.352-47.636 46.352h-850.28c-26.234 0-47.537-20.708-47.537-46.352V300.568c0-25.644 21.303-46.454 47.537-46.454h850.28c26.333 0 47.636 20.809 47.636 46.454zM376.169 218.363c0-4.855-3.653-8.791-8.159-8.791-4.507 0-8.161 3.935-8.161 8.791 0 4.854 3.653 8.791 8.161 8.791 4.506 0 8.159-3.936 8.159-8.791zM334.822 218.363c0-4.855-3.653-8.791-8.159-8.791-4.507 0-8.161 3.935-8.161 8.791 0 4.854 3.653 8.791 8.161 8.791 4.505 0 8.159-3.936 8.159-8.791zM293.476 218.363c0-4.855-3.653-8.791-8.161-8.791-4.506 0-8.159 3.935-8.159 8.791 0 4.854 3.653 8.791 8.159 8.791 4.507 0 8.161-3.936 8.161-8.791zM901.016 227.154h187.546a8.791 8.791 0 0 0 8.791-8.791 8.79 8.79 0 0 0-8.791-8.791H901.016a8.791 8.791 0 0 0 0 17.582z"/><ellipse cx="455.656" cy="466.762" fill="#73B4FF" rx="90.165" ry="90.164" transform="rotate(-45.001 455.653 466.77)"/><circle cx="454.314" cy="441.258" r="35.003" fill="#FFF" transform="rotate(-22.5 454.293 441.24)"/><path fill="#FFF" d="M486.418 476.544c-2.817-2.201-6.755-2.124-9.524.136a34.89 34.89 0 0 1-22.127 7.877 34.753 34.753 0 0 1-21.533-7.42c-2.823-2.215-6.826-2.17-9.549.166-7.061 6.055-11.362 14.787-11.362 26.137v1.024c0 5.869 4.759 10.627 10.628 10.627h65.41c5.869 0 10.628-4.758 10.628-10.627v-1.024c.001-11.836-4.803-20.828-12.571-26.896z"/><path fill="#B0D5FF" d="M547.145 614.519H328.332c-5.429 0-9.831-4.401-9.831-9.831v-5.241c0-5.429 4.401-9.831 9.831-9.831h218.813c5.429 0 9.831 4.401 9.831 9.831v5.241a9.83 9.83 0 0 1-9.831 9.831zM547.145 671.834H328.986c-5.429 0-9.831-4.401-9.831-9.831v-5.241c0-5.429 4.401-9.831 9.831-9.831h218.159c5.429 0 9.831 4.401 9.831 9.831v5.241c0 5.429-4.401 9.831-9.831 9.831zM606.436 614.519h-26.981c-5.429 0-9.831-4.401-9.831-9.831v-5.241c0-5.429 4.401-9.831 9.831-9.831h26.981c5.429 0 9.831 4.401 9.831 9.831v5.241c0 5.43-4.402 9.831-9.831 9.831zM606.436 671.834h-26.981c-5.429 0-9.831-4.401-9.831-9.831v-5.241c0-5.429 4.401-9.831 9.831-9.831h26.981c5.429 0 9.831 4.401 9.831 9.831v5.241c0 5.429-4.402 9.831-9.831 9.831z"/><path fill="#FFF" d="m341.461 651.601.725 5.091a.405.405 0 0 0 .54.323l4.827-1.775c.433-.159.752.414.39.698l-4.047 3.174a.404.404 0 0 0-.009.629l3.951 3.292c.354.295.018.858-.41.686l-4.772-1.918a.405.405 0 0 0-.55.307l-.876 5.068c-.078.455-.734.445-.799-.012l-.725-5.092a.404.404 0 0 0-.54-.323l-4.827 1.775c-.433.159-.752-.414-.39-.698l4.047-3.174a.404.404 0 0 0 .009-.629l-3.951-3.292c-.354-.295-.018-.858.41-.687l4.772 1.918a.405.405 0 0 0 .55-.307l.876-5.068c.078-.453.734-.443.799.014zM364.203 651.601l.725 5.091a.405.405 0 0 0 .54.323l4.827-1.775c.433-.159.752.414.389.698l-4.047 3.174a.404.404 0 0 0-.009.629l3.951 3.292c.354.295.018.858-.41.686l-4.772-1.918a.405.405 0 0 0-.55.307l-.876 5.068c-.079.455-.734.445-.799-.012l-.725-5.092a.405.405 0 0 0-.54-.323l-4.827 1.775c-.433.159-.752-.414-.389-.698l4.047-3.174a.404.404 0 0 0 .009-.629l-3.951-3.292c-.354-.295-.018-.858.41-.687l4.772 1.918a.405.405 0 0 0 .55-.307l.876-5.068c.078-.453.734-.443.799.014zM386.944 651.601l.725 5.091a.405.405 0 0 0 .54.323l4.827-1.775c.433-.159.752.414.389.698l-4.047 3.174a.404.404 0 0 0-.009.629l3.951 3.292c.354.295.018.858-.41.686l-4.772-1.918a.405.405 0 0 0-.55.307l-.876 5.068c-.079.455-.734.445-.799-.012l-.725-5.092a.405.405 0 0 0-.54-.323l-4.827 1.775c-.433.159-.752-.414-.389-.698l4.047-3.174a.404.404 0 0 0 .009-.629l-3.951-3.292c-.354-.295-.018-.858.41-.687l4.772 1.918a.405.405 0 0 0 .55-.307l.876-5.068c.079-.453.734-.443.799.014zM409.686 651.601l.725 5.091a.405.405 0 0 0 .54.323l4.827-1.775c.433-.159.752.414.39.698l-4.047 3.174a.404.404 0 0 0-.009.629l3.951 3.292c.354.295.018.858-.41.686l-4.772-1.918a.405.405 0 0 0-.55.307l-.876 5.068c-.079.455-.734.445-.799-.012l-.725-5.092a.405.405 0 0 0-.54-.323l-4.827 1.775c-.433.159-.752-.414-.39-.698l4.047-3.174a.404.404 0 0 0 .009-.629l-3.951-3.292c-.354-.295-.018-.858.41-.687l4.772 1.918a.405.405 0 0 0 .55-.307l.876-5.068c.078-.453.734-.443.799.014zM432.427 651.601l.725 5.091a.405.405 0 0 0 .54.323l4.827-1.775c.433-.159.752.414.39.698l-4.047 3.174a.404.404 0 0 0-.009.629l3.951 3.292c.354.295.018.858-.41.686l-4.772-1.918a.405.405 0 0 0-.55.307l-.876 5.068c-.079.455-.734.445-.799-.012l-.725-5.092a.405.405 0 0 0-.54-.323l-4.827 1.775c-.433.159-.752-.414-.39-.698l4.047-3.174a.404.404 0 0 0 .009-.629l-3.951-3.292c-.354-.295-.018-.858.41-.687l4.772 1.918a.405.405 0 0 0 .55-.307l.876-5.068c.079-.453.734-.443.799.014z"/><circle cx="339.152" cy="602.068" r="2.92" fill="#FFF"/><circle cx="348.581" cy="602.068" r="2.92" fill="#FFF"/><circle cx="358.01" cy="602.068" r="2.92" fill="#FFF"/><circle cx="367.44" cy="602.068" r="2.92" fill="#FFF"/><circle cx="376.869" cy="602.068" r="2.92" fill="#FFF"/><circle cx="386.298" cy="602.068" r="2.92" fill="#FFF"/><circle cx="395.728" cy="602.068" r="2.92" fill="#FFF"/><circle cx="405.157" cy="602.068" r="2.92" fill="#FFF"/><path fill="#73B4FF" d="M525.334 744.88H392.676a8.171 8.171 0 0 1-8.171-8.172v-24.45a8.17 8.17 0 0 1 8.171-8.171h132.659a8.17 8.17 0 0 1 8.171 8.171v24.45a8.172 8.172 0 0 1-8.172 8.172z"/><path fill="#B0D5FF" d="M492.165 770.507h-69.976a1.549 1.549 0 0 1-1.549-1.549v-.539c0-.856.694-1.549 1.549-1.549h69.976c.856 0 1.549.694 1.549 1.549v.539a1.55 1.55 0 0 1-1.549 1.549zM517.076 784.213H397.277a1.549 1.549 0 0 1-1.549-1.549v-.539c0-.856.694-1.549 1.549-1.549h119.799c.856 0 1.549.694 1.549 1.549v.539a1.548 1.548 0 0 1-1.549 1.549z"/><path fill="#FFF" d="m403.963 727.447 5.447-.341c.118.885.358 1.559.721 2.022.589.75 1.432 1.125 2.528 1.125.817 0 1.447-.192 1.889-.575.443-.383.664-.828.664-1.334 0-.48-.211-.91-.632-1.289-.421-.379-1.398-.737-2.932-1.074-2.511-.564-4.301-1.314-5.371-2.249-1.078-.935-1.618-2.127-1.618-3.577 0-.952.276-1.852.828-2.698.552-.847 1.382-1.512 2.49-1.996 1.108-.484 2.627-.727 4.556-.727 2.367 0 4.172.441 5.415 1.321 1.243.88 1.982 2.281 2.218 4.202l-5.396.316c-.144-.834-.445-1.44-.904-1.819s-1.093-.569-1.902-.569c-.665 0-1.167.142-1.504.424-.337.282-.505.625-.505 1.03 0 .295.139.56.417.796.27.244.91.472 1.921.682 2.502.539 4.294 1.085 5.378 1.637 1.082.552 1.87 1.236 2.363 2.053.493.818.739 1.731.739 2.742a5.877 5.877 0 0 1-.986 3.286c-.657 1.003-1.575 1.763-2.755 2.281-1.179.518-2.666.777-4.461.777-3.151 0-5.333-.607-6.547-1.82-1.214-1.214-1.901-2.756-2.061-4.626zM423.501 715.05h5.143v3.501h-5.143v-3.501zm0 5.105h5.143v13.421h-5.143v-13.421zM441.269 720.155h4.815v12.676l.013.594c0 .842-.179 1.645-.537 2.407-.358.763-.834 1.38-1.428 1.852-.594.472-1.348.813-2.263 1.024-.914.211-1.961.316-3.14.316-2.696 0-4.547-.405-5.554-1.213-1.007-.809-1.511-1.891-1.511-3.248 0-.169.009-.396.025-.682l4.992.569c.126.463.32.784.581.961.379.261.855.391 1.428.391.741 0 1.296-.198 1.662-.594.367-.396.55-1.087.55-2.072v-2.035c-.505.598-1.011 1.032-1.516 1.301a5.37 5.37 0 0 1-2.565.632c-1.795 0-3.243-.784-4.347-2.351-.784-1.112-1.175-2.582-1.175-4.41 0-2.089.505-3.682 1.516-4.777 1.011-1.095 2.334-1.643 3.968-1.643 1.045 0 1.907.177 2.584.531.678.354 1.312.94 1.902 1.757v-1.986zm-4.84 6.508c0 .969.206 1.687.619 2.155.413.467.956.701 1.63.701.64 0 1.177-.242 1.611-.727.434-.484.651-1.215.651-2.193 0-.977-.227-1.725-.682-2.243-.455-.518-1.011-.777-1.668-.777s-1.181.238-1.573.714c-.392.477-.588 1.267-.588 2.37zM449.193 720.155h4.789v2.186c.716-.893 1.441-1.531 2.174-1.914.733-.383 1.626-.575 2.679-.575 1.424 0 2.538.424 3.343 1.27.804.847 1.207 2.154 1.207 3.924v8.53h-5.169v-7.38c0-.842-.156-1.439-.467-1.788-.312-.35-.75-.524-1.314-.524-.624 0-1.129.236-1.517.708-.388.472-.581 1.318-.581 2.54v6.445h-5.143v-13.422zM487.484 715.05h5.713v11.038a9.3 9.3 0 0 1-.512 3.1 6.692 6.692 0 0 1-1.605 2.551c-.729.729-1.494 1.24-2.294 1.534-1.112.412-2.448.619-4.006.619-.902 0-1.886-.063-2.951-.19-1.066-.126-1.957-.376-2.673-.751s-1.371-.907-1.965-1.598c-.594-.69-1.001-1.402-1.22-2.134-.354-1.179-.531-2.223-.531-3.132V715.05h5.712v11.301c0 1.01.28 1.799.84 2.367.56.568 1.337.852 2.332.852.986 0 1.759-.28 2.319-.84.56-.56.84-1.353.84-2.38v-11.3zM496.672 738.682v-18.527h4.815v1.984c.666-.834 1.277-1.399 1.833-1.693.75-.396 1.58-.594 2.49-.594 1.795 0 3.183.687 4.164 2.06s1.473 3.071 1.473 5.093c0 2.233-.535 3.937-1.605 5.112-1.07 1.175-2.422 1.763-4.057 1.763-.792 0-1.514-.135-2.167-.405a5.152 5.152 0 0 1-1.75-1.2v6.407h-5.196zm5.156-11.778c0 1.062.223 1.849.67 2.363a2.146 2.146 0 0 0 1.693.771c.598 0 1.1-.247 1.504-.739.405-.493.607-1.329.607-2.509 0-1.087-.211-1.885-.632-2.395-.421-.51-.935-.765-1.542-.765-.657 0-1.205.257-1.643.771-.438.515-.657 1.349-.657 2.503z"/><path fill="#B0D5FF" d="M269.693 300.023h697.926v27.996H269.693zM994.789 300.023h49.449v27.996h-49.449zM1122.956 303.952h-50.365a1.831 1.831 0 0 1-1.831-1.831v-.267c0-1.011.82-1.831 1.831-1.831h50.365c1.011 0 1.831.82 1.831 1.831v.267a1.83 1.83 0 0 1-1.831 1.831zM1122.956 315.003h-50.365a1.831 1.831 0 0 1-1.831-1.831v-.267c0-1.011.82-1.831 1.831-1.831h50.365c1.011 0 1.831.82 1.831 1.831v.267a1.83 1.83 0 0 1-1.831 1.831zM1122.956 326.054h-50.365a1.831 1.831 0 0 1-1.831-1.831v-.267c0-1.011.82-1.831 1.831-1.831h50.365c1.011 0 1.831.82 1.831 1.831v.267a1.83 1.83 0 0 1-1.831 1.831z"/><path fill="#D4E8FF" d="M682.91 390.655h375.009v80.263H682.91zM682.91 518.828h77.507V584.9H682.91zM799.81 518.828h77.507V584.9H799.81zM682.91 618.273h77.507v66.072H682.91zM799.81 618.273h77.507v66.072H799.81zM948.913 522.971h-45.796c-.991 0-1.794-.928-1.794-2.072 0-1.144.803-2.072 1.794-2.072h45.796c.991 0 1.795.927 1.795 2.072s-.804 2.072-1.795 2.072zM1029.803 522.971H958.85c-.991 0-1.795-.928-1.795-2.072 0-1.144.803-2.072 1.795-2.072h70.953c.991 0 1.795.927 1.795 2.072s-.804 2.072-1.795 2.072zM1056.357 522.971h-14.889c-.862 0-1.562-.807-1.562-1.803 0-.996.699-1.803 1.562-1.803h14.889c.863 0 1.562.807 1.562 1.803 0 .996-.7 1.803-1.562 1.803zM1056.124 544.381H903.117c-.991 0-1.794-.928-1.794-2.072 0-1.144.803-2.072 1.794-2.072h153.007c.991 0 1.795.928 1.795 2.072 0 1.145-.804 2.072-1.795 2.072zM948.913 584.899h-45.796c-.991 0-1.794-.928-1.794-2.072 0-1.144.803-2.072 1.794-2.072h45.796c.991 0 1.795.928 1.795 2.072 0 1.145-.804 2.072-1.795 2.072zM1029.803 584.899H958.85c-.991 0-1.795-.928-1.795-2.072 0-1.144.803-2.072 1.795-2.072h70.953c.991 0 1.795.928 1.795 2.072 0 1.145-.804 2.072-1.795 2.072zM979.255 563.49h-76.138c-.991 0-1.794-.928-1.794-2.072 0-1.144.803-2.072 1.794-2.072h76.138c.991 0 1.794.928 1.794 2.072.001 1.144-.803 2.072-1.794 2.072zM1056.124 563.49H997.5c-.991 0-1.795-.928-1.795-2.072 0-1.144.803-2.072 1.795-2.072h58.624c.991 0 1.795.928 1.795 2.072 0 1.144-.804 2.072-1.795 2.072zM1056.357 584.899h-14.889c-.862 0-1.562-.807-1.562-1.803 0-.996.699-1.803 1.562-1.803h14.889c.863 0 1.562.807 1.562 1.803 0 .996-.7 1.803-1.562 1.803zM948.913 622.416h-45.796c-.991 0-1.794-.928-1.794-2.072 0-1.144.803-2.072 1.794-2.072h45.796c.991 0 1.795.928 1.795 2.072 0 1.145-.804 2.072-1.795 2.072zM1029.803 622.416H958.85c-.991 0-1.795-.928-1.795-2.072 0-1.144.803-2.072 1.795-2.072h70.953c.991 0 1.795.928 1.795 2.072 0 1.145-.804 2.072-1.795 2.072zM1056.357 622.416h-14.889c-.862 0-1.562-.807-1.562-1.803 0-.996.699-1.803 1.562-1.803h14.889c.863 0 1.562.807 1.562 1.803 0 .996-.7 1.803-1.562 1.803zM1056.124 643.826H903.117c-.991 0-1.794-.928-1.794-2.072 0-1.144.803-2.072 1.794-2.072h153.007c.991 0 1.795.928 1.795 2.072 0 1.145-.804 2.072-1.795 2.072zM948.913 684.344h-45.796c-.991 0-1.794-.928-1.794-2.072 0-1.144.803-2.072 1.794-2.072h45.796c.991 0 1.795.928 1.795 2.072 0 1.145-.804 2.072-1.795 2.072zM1029.803 684.344H958.85c-.991 0-1.795-.928-1.795-2.072 0-1.144.803-2.072 1.795-2.072h70.953c.991 0 1.795.928 1.795 2.072 0 1.145-.804 2.072-1.795 2.072zM979.255 662.935h-76.138c-.991 0-1.794-.928-1.794-2.072 0-1.144.803-2.072 1.794-2.072h76.138c.991 0 1.794.928 1.794 2.072.001 1.144-.803 2.072-1.794 2.072zM1056.124 662.935H997.5c-.991 0-1.795-.928-1.795-2.072 0-1.144.803-2.072 1.795-2.072h58.624c.991 0 1.795.928 1.795 2.072 0 1.144-.804 2.072-1.795 2.072zM1056.357 684.344h-14.889c-.862 0-1.562-.807-1.562-1.803 0-.996.699-1.803 1.562-1.803h14.889c.863 0 1.562.808 1.562 1.803 0 .996-.7 1.803-1.562 1.803z"/><path fill="#3D415C" d="M821.95 744.115c.096-.115.255.049.163.163-3.503 4.37-.859 10.241 1.084 14.63 1.025 2.314 1.38 4.75 1.647 7.246.252 2.357.525 5.058 2.116 6.956 1.663 1.983 4.451 2.87 6.772 3.794.185.074.118.364-.085.307-2.284-.645-4.603-1.454-6.531-2.881-.924-.683-1.84-1.407-2.434-2.403-.686-1.151-1.031-2.354-1.215-3.673-.191-1.376-.208-2.76-.307-4.143-.111-1.549-.486-2.99-.846-4.493-.648-2.703-1.75-5.314-2.111-8.081-.339-2.61.01-5.349 1.747-7.422zM813.23 715.871c1.124-2.202 3.018-3.911 5.35-4.733 3.473-1.224 7.076-.879 10.655-.411.15.02.157.257 0 .242-2.982-.289-6.069-.614-9.008.155-2.437.638-4.885 2.305-5.821 4.724a13.055 13.055 0 0 0-.753 6.537c.347 2.45 1.469 4.733 2.54 6.931 1.32 2.709 3.779 4.851 5.783 7.062.066.073-.036.176-.109.109a58.478 58.478 0 0 1-3.164-3.155c-1.007-1.084-1.901-2.267-2.906-3.347-1.853-1.993-3.041-4.382-3.459-7.074-.364-2.355-.206-4.887.892-7.04z"/><path fill="#3D415C" d="M821.949 736.743c-8.617 17.456 3.235 17.187 3.747 29.547.727 17.547 23.274 8.728 27.769 8.604 4.495-.124 11.142-2.967 16.597-9.877 5.455-6.91 13.973-5.91 12.91-15.092a17.44 17.44 0 0 0-.648-3.113c.536-3.77-1.019-7.465-3.361-10.381-2.351-2.927-6.274-4.066-8.311-7.292-1.962-3.109-2.215-6.929-3.752-10.227-1.576-3.38-4.477-6.387-7.362-8.683-2.005-1.595-4.178-2.939-6.409-4.188-3.018-2.048-6.03-3.273-8.221-3.514-11.024-1.212-12.971 3.879-16.425 5.879-3.455 2-10.425-.485-13.607 7.516-3.18 8.002 7.073 20.821 7.073 20.821zm33.949-28.578c1.557 1.066 3.053 2.217 4.429 3.517 1.382 1.306 2.594 2.727 3.557 4.367.96 1.635 1.547 3.374 2.061 5.193.928 3.28 1.423 6.881 3.529 9.676 2.177 2.889 5.58 4.17 8.406 6.262 2.824 2.09 4.069 5.516 4.22 8.935-3.728-10.407-16.491-9.819-17.31-21.463-.489-6.944-4.409-12.617-8.892-16.487z"/><path fill="#E86677" d="M770.863 863.587s2.291 18.323 2.291 19.307c0 .33 7.717.864 18.407 1.117 21.401.499 54.722-.162 61.99-6.037 11.899-9.607 9.383-43.772 6.051-67.022-1.862-12.988-3.978-22.568-3.978-22.568-2.214-14.984 3.261-35.458-13.579-25.281-22.8 18.871-8.125 88.501-14.956 91.811-1.694.815-44.286 6.494-56.226 8.673z"/><path fill="#FFD8D9" d="M1279.168 837.513c-1.507 6.768-27-12.529-38.619-10.146-6.357 1.315-18.877 9.287-26.66 12.384-33.54 13.289-77.273 39.267-106.84 44.993-39.787 7.673-162.11-1.15-162.11-1.15l-7.398-41.185s39.943-28.155 71.62-21.277c31.677 6.906 78.927 33.58 99.889 20.756 13.728-8.385 64.449-20.442 98.346-24.936 6.275-.821 11.974-1.397 16.742-1.644 0 0 5.418-17.008 11.503-18.378 8.11-1.809 13.406 8.842 23.654 17.857 11.863 10.414 21.846 13.82 19.873 22.726z"/><path fill="#2C2F47" d="m937.541 842.41 7.401 41.186s69.665 5.025 120.95 4.182c16.671-.267 31.396-1.153 41.158-3.036a136.83 136.83 0 0 0 8.49-1.94c27.186-7.035 66.045-23.833 95.803-35.921 4.976-2.024 7.506-7.584 5.763-12.672l-3.107-9.067-2.031-5.939c-1.447-4.231-5.503-7.035-9.973-6.846-40.504 1.771-84.297 16.966-97.215 24.859-8.596 5.257-22.491 3.985-37.602.33-21.731-5.25-45.986-15.441-60.633-18.203-25.506-4.814-69.004 23.067-69.004 23.067z"/><path fill="#2C2F47" d="m1060.776 848.912 5.116 38.866c16.671-.267 31.396-1.153 41.158-3.036a136.83 136.83 0 0 0 8.49-1.94c.787-.71 13.438-16.657 16.741-31.691 3.296-15.034-4.407-18.519 11.182-19.251 15.582-.738 27.868-15.301 39.787-13.881 9.706 1.153 24.655 10.493 30.749 7.162l-2.031-5.939c-1.447-4.231-5.503-7.035-9.973-6.846-40.504 1.771-84.297 16.966-97.215 24.859-8.596 5.257-22.491 3.985-37.602.33-3.436 6.116-6.402 11.367-6.402 11.367z"/><path fill="#FFD8D9" d="M1103.569 879.949c-33.541 16.607-115.584-1.686-158.194 3.163-1.671-14.961-1.763-23.743-2.475-38.293 18.084-10.769 34.181-27.182 57.857-25.537 23.676 1.616 76.095 31.841 75.931 7.179-.329-42.829 3.014-69.874 18.305-106.21a359.989 359.989 0 0 1 7.644-16.989c2.44-5.096-8.494-11.098-7.343-16.633.74-3.562 10.111-6.028 16.962-9.781 11.536-6.33 29.209-8.2 35.238-4.392 5.782 3.645-22.387 14.662-28.251 27.212-1.726 4.659-1.999 15.624-2.302 23.653-1.837 47.377 15.317 142.408-13.372 156.628z"/><path fill="#3D415C" d="M937.33 841.897c.33 6.733 1.518 12.988 2.868 19.244 1.56 7.26 3.338 14.527 4.238 22.568 26.033 1.532 117.077 13.023 155.916.724 2.558-.815 4.885-1.722 6.958-2.748 26.686-13.234 19.04-97.876 19.321-147.756.035-6.052-4.498-11.147-10.507-11.857l-17.704-2.081a11.779 11.779 0 0 0-.857-.07c-5.166-.232-9.959 2.903-11.709 7.83-11.484 32.274-9.467 59.41-9.165 98.713.112 17.402-25.513 6.881-48.931-1.385-9.769-3.451-19.152-6.508-26.117-6.986-23.68-1.645-46.227 13.03-64.311 23.804z"/><path fill="#2C2F47" d="M940.198 861.141c1.56 7.26 3.338 14.527 4.238 22.568 26.033 1.532 117.077 13.023 155.916.724-28.071 1.342-71.115 3.162-90.363-6.74-14.023-7.215-28.713-2.872-41.691 2.223-13.883 5.45-15.482-37.449-27.323-40.695l-.777 21.92z"/><path fill="#D94559" d="M840.864 840.014c.387.555.78 1.11 1.181 1.651 12.117 16.594 28.254 26.736 44.138 32.9a128.657 128.657 0 0 0 9.615 3.289c26.082 7.78 49.058 5.883 49.058 5.883 2.123-5.686 3.24-11.554 3.219-17.641-.028-8.525-2.27-17.458-7.099-26.876 0 0-10.746-18.864-23.861-37.636-4.196-6.002-8.631-11.997-13.031-17.36-7.253-8.842-13.598-17.379-19.558-19.765-15.527-6.214-28.529-4.624-28.529-4.624l-18.484 7.19c-10.797 25.035-9.918 53.942 3.351 72.989z"/><path fill="#BF3547" d="M842.045 841.665c12.117 16.594 28.254 26.736 44.138 32.9a128.657 128.657 0 0 0 9.615 3.289c-.295-3.929-.668-9.003-1.434-14.275-1.286-8.807-16.137-60.872-16.137-60.872l-16.488-1.694s-4.597 26.075-.745 34.509c3.851 8.434 7.886 19.068 2.2 19.989-3.951.633-13.832-8.553-21.149-13.846z"/><path fill="#BF3547" d="M886.183 874.565c29.772 11.561 58.672 9.172 58.672 9.172 2.123-5.686 3.24-11.554 3.219-17.641-16.65 1.237-20.206 7.844-27.902 7.562-7.703-.274-6.881-10.451-4.266-21.584 2.614-11.14-2.474-25.302.689-39.724.914-4.182.942-7.773.52-10.767-4.196-6.002-8.631-11.997-13.031-17.36-5.089 4.807-9.664 9.207-9.903 9.685-.492.977-6.67 66.516-7.998 80.657z"/><path fill="#FFD8D9" d="M856.014 759.84c-.593 24.239-15.92 25.875-18.516 7.186l-2.211-7.635-4.352-15.062-.588-2.073 12.886-5.423 3.419 6.115 4.147 7.531 5.215 9.361z"/><path fill="#F9BDBD" d="M850.799 750.478c-1.624 1.831-3.593 3.835-5.286 5.113-3.627 2.729-10.191 3.8-10.191 3.8h-.034l-4.352-15.062 5.665-2.453 10.052 1.071 4.146 7.531z"/><path fill="#FFD8D9" d="M819.897 723.139s-4.664 33.638 12.392 33.27c17.055-.368 20.903-18.548 20.903-18.548s7.173-5.009 4.473-9.917c-2.699-4.909-6.594 1.349-6.594 1.349s-15.922-3.435-19.419-14.846c-1.848 4.851-9.355.766-11.755 8.692z"/><path fill="#3D415C" d="M819.492 727.455c.872-.739 5.842-.555 6.394-8.101 0 0 2.668 6.721 8.926 9.11 0 0-1.086-5.96 1.032-7.8 0 0 1.822 6.236 6.423 10.93 4.602 4.694 4.897 12.147 4.657 13.896 0 0 6.093-11.383 3.525-20.921-2.568-9.539-7.906-11.38-7.906-11.38s-15.573-4.538-21.392 4.19c-3.5 5.249-1.659 10.076-1.659 10.076z"/><path fill="#2C2F47" d="M1283.306 833.048c-.866-1.027-2.741-2.946-5.244-5.392l-.487-.476-.368-.356a509.563 509.563 0 0 0-8.489-8.026l-.224-.208a624.853 624.853 0 0 0-5.098-4.665l-.55-.497a581.55 581.55 0 0 0-7.84-6.954l-.414-.36a425.596 425.596 0 0 0-2.353-2.023l-.674-.573c-.612-.52-1.215-1.027-1.808-1.524-.192-.161-.386-.325-.577-.483-.729-.607-1.44-1.191-2.132-1.754l-.558-.45a148.377 148.377 0 0 0-3.962-3.093c-.125-.093-.24-.175-.362-.266-.471-.348-.92-.671-1.346-.97-.146-.102-.292-.206-.431-.301a34.96 34.96 0 0 0-1.398-.917l-.162-.094a14.366 14.366 0 0 0-1.269-.683c-.321-.146-.613-.262-.836-.305-1.435-.278-3.089 1.191-4.747 3.52l-.007.008c-4.723 6.639-9.115 19.176-9.115 19.176 2.692 1.693 4.321-.301 9.366 3.083 1.821 1.223 2.692 2.837 3.063 4.401.62 2.62 2.97 4.666 5.668 5.121.992.167 2.081.404 3.25.719.526.138 1.066.294 1.621.469a46.86 46.86 0 0 1 3.155 1.099c.507.196 1.021.403 1.541.628 1.232.521 2.5 1.114 3.797 1.785.549.287 1.107.586 1.667.904a56.126 56.126 0 0 1 4.3 2.674c.339.232.683.47 1.024.716.56.401 1.112.781 1.652 1.14a44.038 44.038 0 0 0 3.436 2.066l.003.002c.343.186.682.365 1.02.532l.001-.003c10.204 5.1 16.023 1.797 17.114-2.388.465-1.794.067-3.75-1.227-5.282zM1150.197 667.271c-1.293.079-3.859.423-7.197.951l-.649.102-.487.08a490.442 490.442 0 0 0-11.106 1.943l-.29.054a605.794 605.794 0 0 0-14.486 2.881c-.899.191-1.788.382-2.67.574l-.516.112c-.992.218-1.964.437-2.923.655l-.831.191c-.755.175-1.496.348-2.222.521l-.707.168c-.89.215-1.751.428-2.586.64l-.671.172c-.654.168-1.286.335-1.899.5l-.643.174c-.751.206-1.466.409-2.136.609l-.413.126c-.541.164-1.05.325-1.527.484l-.481.16c-.554.19-1.068.375-1.516.553-.061.025-.108.048-.166.072a14.05 14.05 0 0 0-1.26.588c-.298.164-.555.323-.718.471-1.042.952-.859 3.078-.011 5.704l.002.009c2.416 7.484 10.595 17.278 10.595 17.278 2.991-.298 1.252-2.685 6.779-4.64 1.997-.704 3.748-.448 5.173.167 2.385 1.03 5.323.39 7.232-1.435a33.474 33.474 0 0 1 2.43-2.102 45.225 45.225 0 0 1 3.967-2.792c.443-.279.901-.559 1.374-.831a51.901 51.901 0 0 1 5.23-2.68 54.435 54.435 0 0 1 4.549-1.786c.375-.13.757-.258 1.144-.381.634-.202 1.246-.41 1.835-.622a42.542 42.542 0 0 0 3.58-1.468l.003-.001c.342-.158.676-.317.999-.482v-.003c9.829-4.958 10.627-11.366 8.017-14.623-1.123-1.392-2.866-2.212-4.798-2.093z"/><path fill="#FFD8D9" d="M790.107 881.304c4.688.64 8.132-7.373 10.065-5.433 1.258 1.251 4.828 4.386 10.542 5.812.829.211 1.701.387 2.622.513 1.778.239 3.725.302 5.84.112 2.376-.211 3.648-.893 4.182-1.814 1.926-3.247-5.151-9.53-5.151-9.53s-1.863-.956-4.519-2.052c-4.948-2.045-12.658-4.597-16.2-2.411-5.455 3.361-12.062 14.156-7.381 14.803z"/><path fill="#E86677" d="M813.307 884.586c0 .984 75.351 6.789 86.251-2.017 1.497-1.209 2.776-2.86 3.859-4.871v-.007c12.356-22.905-.372-92.69-.372-92.69-2.214-14.977-27.017-38.677-37.967-22.336-9.39 14-3.57 46.155.661 69.517.949 5.201 1.806 9.959 2.411 13.993 1.075 7.218 1.3 12.089-.379 12.897-.745.372-9.207 1.28-19.412 2.376-10.324 1.103-22.448 2.397-30.186 3.493a5.412 5.412 0 0 0-4.484 3.971 5.27 5.27 0 0 0-.19 1.342c-.049 3.24-.106 7.52-.148 10.57-.007.492-.007.949-.014 1.371-.023 1.302-.03 2.194-.03 2.391z"/><path fill="#FFF" d="m738.206 848.13 4.078-2.919L721 843.78l-4.714 3.039z"/><path fill="#F58C4F" d="M1098.911 777.588s-.028-.358-.647-.956c.415.598.647.956.647.956z"/><path fill="#2C2F47" d="M1027.756 825.078s26.272 18.969 35.254 17.226c8.771-1.694 19.949 1.429 20.314 1.563-.288-.225-6.999-6.116-3.759-10.909 3.339-4.948 3.574-12.469 1.557-28.789-2.017-16.313-2.566-34.467 7.52-31.719 6.178 1.687 8.645 3.24 9.622 4.182-1.975-2.84-8.117-11.105-13.656-12.616-6.712-1.82-3.303-10.999.366-23.468 2.952-10.036 10.479-17.282 12.588-20.628-5.166-.232-9.959 2.903-11.709 7.83-11.484 32.274-9.467 59.41-9.165 98.713.112 17.402-25.513 6.881-48.932-1.385z"/><path fill="#C8CBE3" d="M774.396 890.962h50.237c.633 0 1.146-.513 1.146-1.146v-4.936c0-.633-.513-1.146-1.146-1.146h-50.237c-.633 0-1.146.513-1.146 1.146v4.936a1.147 1.147 0 0 0 1.146 1.146z"/><path fill="#C8CBE3" d="M684.491 805.152h82.029a7.108 7.108 0 0 1 6.806 5.059l21.554 71.594c1.373 4.562-2.042 9.157-6.806 9.157h-82.029a7.108 7.108 0 0 1-6.806-5.059l-21.554-71.594c-1.373-4.562 2.042-9.157 6.806-9.157z"/><path fill="#C8CBE3" d="M720.806 849.508a.973.973 0 0 1 .525-1.664l4.377-.672a.97.97 0 0 0 .728-.538l1.927-3.987a.973.973 0 0 1 1.745-.014l1.992 3.955c.144.286.42.483.736.526l4.387.601a.973.973 0 0 1 .553 1.655l-3.146 3.116a.975.975 0 0 0-.273.863l.784 4.358a.973.973 0 0 1-1.403 1.037l-3.936-2.029a.972.972 0 0 0-.905.008l-3.902 2.092a.973.973 0 0 1-1.42-1.014l.713-4.37a.976.976 0 0 0-.287-.859l-3.195-3.064z"/><path fill="#30334D" d="M269.985 833.634s-39.55 5.85-38.876 5.458c.675-.392 72.386 36.386 72.386 36.386l70.659-31.659-35.033-10.185h-69.136z"/><path fill="#FFD8D9" d="M285.176 887.598c-.2.002-.401.003-.592.007l-.365.001c-10.063.115-16.633-.135-16.633-.135s-.482.108-1.363.29c-8.603 1.785-54.988 10.622-51.035-6.856 3.464-15.346 31.294-13.439 42.454-12.031a.5.5 0 0 1 .11.014c2.785.355 4.501.67 4.501.67s5.537-2.381 14.276-5.771c.36-.143.73-.291 1.098-.432 28.787-11.172 89.333-32.35 105.005-19.623l-.002.008c.172.132.342.28.502.427.01-.007.025.005.03.023.167.157.324.32.481.484.138.133.272.283.394.447.051.046.099.108.147.17.172.219.341.445.493.677-.002.008.007.01.007.01.164.251.319.51.464.775.138.255.258.514.366.78.254.575.448 1.188.591 1.835.141.656.259 1.297.336 1.93.145 1.134.203 2.233.151 3.308-1.259 28.228-68.613 32.558-101.416 32.992z"/><path fill="#222438" d="m279.043 888.817-2.515-25.028-1.086-3.208c28.815-11.185 91.237-30.145 107.178-16.874l.007.01c.178.142.347.29.505.454.01-.007.025.005.03.023.167.157.324.32.481.484.138.133.272.283.394.447.051.046.099.108.147.17.172.219.341.445.493.677-.002.008.007.01.007.01.164.251.319.51.464.775.138.255.258.514.366.78.254.575.448 1.188.591 1.835.141.656.259 1.297.336 1.93.145 1.134.203 2.233.151 3.308-1.159 28.575-107.549 34.207-107.549 34.207zM262.234 869.637s-52.472-10.252-54.759 11.929c-2.456 23.83 60.093 5.988 60.093 5.988s-24.124 5.278-22.978-8.25c1.108-13.092 17.644-9.667 17.644-9.667z"/><path fill="#FFD8D9" d="M340.202 779.59c-10.297 14.461-1.087 54.043-1.087 54.043h-69.131c1.91-2.708 7.293-36.825-4.831-55.632-19.565-30.339 1.514-53.928 1.514-53.928l28.75-5.227 1.835-9.153 1.26-6.304.296-1.465h12.931l.469 2.749 1.013 5.992 1.498 8.84 26.429 5.737c0-.001 22.635 21.219-.946 54.348z"/><path fill="#D94559" d="M340.197 779.599c-10.301 14.459-1.077 54.034-1.077 54.034h-69.135c1.626-2.305 5.765-27.405-.529-46.399-1.097-3.327-2.514-6.445-4.309-9.242-19.561-30.334 1.512-53.921 1.512-53.921l28.765-5.235c1.103 6.433 16.788 6.054 19.296.662l26.422 5.745c.001.001 22.642 21.206-.945 54.356z"/><path fill="#C4626E" d="M269.985 833.634c1.626-2.305 5.765-27.405-.529-46.399 13.632-3.961 11.33 33.878 34.039 46.399h-33.51z"/><path fill="#FFD8D9" d="M377.797 809.676c-.718 4.479-3.874 9.337-8.543 14.137-11.944 12.265-36.271 11.718-52.96 16.177l-1.742-8.891s29.791-8.402 36.199-18.854c.68-1.115 1.153-2.154 1.342-3.08 2.173-10.414-9.885-23.436-9.885-23.436l-1.283-60.46c.001.001 40.501 61.632 36.872 84.407z"/><path fill="#D94559" d="M378.194 809.673c-.774 4.214-3.3 9.507-7.506 14.124a1.352 1.352 0 0 1-1.729.214l-5.12-3.326-13.424-8.699c.683-1.112 1.029-2.231 1.218-3.161 2.173-10.412-17.145-26.52-17.145-26.52l4.642-57.41c6.222-.28 16.445 13.919 24.931 31.327l.024.065c9.188 18.833 16.315 41.393 14.109 53.386z"/><path fill="#FFD8D9" d="m294.281 831.249.302 5.913c.534-.186.49-.961-.064-1.076-14.872-3.073-39.315 1.179-51.217-8.929-7.333-6.237-11.338-13.915-12.283-19.83-3.628-22.774 35.875-83.208 35.875-83.208l-1.459 60.382s-12.058 13.022-9.885 23.436c.378 1.853 1.852 4.139 3.988 6.633 8.921 10.47 34.743 16.679 34.743 16.679z"/><path fill="#D94559" d="M255.547 807.936c.379 1.852 2.906 3.474 5.037 5.967l-12.47 10.371-5.012 4.165c-7.334-6.239-11.639-14.223-13.252-19.993-2.494-8.882 1.054-24.059 7.038-39.129.025-.082.041-.124.041-.124 9.029-22.742 23.556-45.195 31.145-45.377l4.379 61.271c0 .001-19.079 12.437-16.906 22.849z"/><path fill="#FFD8D9" d="M392.075 878.954c4.163 17.769-43.144 9.156-51.922 7.409-.898-.177-1.391-.283-1.391-.283s-6.856.32-17.311.278l-.612-.001c-15.181-.079-37.636-.909-57.755-4.498-24.685-4.397-45.869-12.925-45.832-29.276.001-.036.004-.063-.001-.088.006-.667.046-1.34.126-2.032a.06.06 0 0 0 .001-.035c.086-.71.204-1.428.355-2.161.14-.659.333-1.287.586-1.874.109-.272.229-.538.367-.798.145-.271.3-.535.466-.793 0 0 .009-.002.007-.01.153-.237.324-.469.497-.693.048-.064.097-.128.148-.174.123-.169.258-.322.397-.459.158-.167.317-.335.486-.495.005-.019.019-.031.03-.024 1.91-1.781 4.583-2.983 7.865-3.714 22.567-5.02 73.788 12.541 99.751 22.372.376.141.754.288 1.122.43 8.928 3.38 14.588 5.759 14.588 5.759s1.746-.336 4.579-.72c.034-.007.07-.006.112-.015 11.356-1.531 39.675-3.705 43.341 11.895z"/><path fill="#30334D" d="m330.536 858.757-1.079 3.276-8.005 24.325-1.107 3.352c-13.777-.065-33.457-1.267-51.927-4.692l-.01-.007c-26.895-4.981-51.25-14.673-51.154-32.429.001-.036.004-.063-.001-.088.006-.667.053-1.351.126-2.032a.06.06 0 0 0 .001-.035c.086-.71.204-1.428.355-2.161.14-.659.333-1.287.586-1.874.109-.272.229-.538.367-.798.145-.271.3-.535.466-.793 0 0 .009-.002.007-.01.153-.237.324-.469.497-.693.048-.064.097-.128.148-.174.123-.169.258-.322.397-.459.158-.167.317-.335.486-.495.005-.019.019-.031.03-.024 1.973-1.901 4.789-3.222 8.252-4.055 23.206-5.666 75.651 10.06 101.565 19.866zM344.059 867.871s53.357-10.881 55.871 11.691c2.702 24.25-61.153 6.602-61.153 6.602s23.327 4.418 22.047-9.352c-1.24-13.323-16.765-8.941-16.765-8.941z"/><path fill="#C8CBE3" d="M347.353 774.757h-86.942c-3.055 0-5.06 3.106-4.492 6.853l8.571 56.507c.375 2.474 2.632 4.447 5.045 4.447h68.695c2.413 0 4.67-1.973 5.045-4.447l8.571-56.507c.568-3.747-1.439-6.853-4.493-6.853z"/><path fill="#B53344" d="M378.194 809.673c-.774 4.214-3.3 9.507-7.506 14.124a1.352 1.352 0 0 1-1.729.214l-5.12-3.326c2.691-4.667 6.661-8.369 8.525-15.594 4.991-19.338-7.595-47.133-8.278-48.804 9.187 18.833 16.314 41.393 14.108 53.386z"/><path fill="#222438" d="M287.458 686.21s-10.359-11.1-1.955-25.848c0 0 2.538 4.598 5.55 3.329 0 0 .158-10.782 22.043-13.002 0 0-1.586 4.281-.793 5.392 7.215-3.172 14.216 4.703 21.25 1.744 0 0 1.942 12.494-6.145 19.788 0 0 1.228 4.315-1.625 8.597-2.857 4.281-38.325 0-38.325 0z"/><path fill="#FFD8D9" d="M290.72 682.858s-4.726-4.622-5.172-.137c-.528 5.309 5.793 9.257 5.793 9.257s1.541 16.415 15.39 16.415c13.738 0 16.036-16.478 16.036-16.478s7.225-1.971 5.693-8.21c-.727-2.962-4.494.065-4.494.065v-7.796s-3.852 1.957-11.285-1.23c-5.382-2.31-7.301-5.518-11.9-5.336-5.243.208-10.267 5.961-10.061 13.45z"/><path fill="#D94559" d="M985.567 663.149c.321 0 .321.499 0 .499s-.321-.499 0-.499z"/><path fill="#D94559" d="M873.919 555.483c24.245-18.451 55.869-25.993 86.231-23.445 19.623 1.647 39.2 7.476 55.192 18.966 15.993 11.491 28.104 28.994 30.874 48.491 2.771 19.497-4.695 40.675-20.515 52.403-16.722 12.397-39.423 12.899-60.016 9.855-26.062-3.853-51.249-12.507-77.353-16.069-10.797-1.473-22.205-1.986-32.18 2.402-9.975 4.389-17.898 9.56-21.144 24.088-16.119-62.193 14.665-98.24 38.911-116.691z"/><path fill="#D94559" d="M917.626 663.556c2.507.561 4.827 1.773 7.232 2.67 2.42.903 4.877 1.716 7.327 2.531 4.922 1.637 9.834 3.272 14.858 4.572 10.001 2.588 20.288 4.131 30.626 4.299 18.187.295 36.456-3.785 52.111-13.233 8.484-5.12 16.267-11.928 22.304-19.801.289-.377.931-.04.658.385-4.846 7.549-10.866 13.825-18.091 19.143-7.308 5.379-15.48 9.515-24.05 12.472-19.389 6.69-40.132 6.584-60.006 2.094-5.88-1.328-11.748-2.963-17.408-5.048-2.798-1.031-5.537-2.224-8.246-3.467-2.788-1.279-5.867-2.372-8.323-4.224-1.149-.865-.524-2.736 1.008-2.393zM822.798 599.512c2.413-10.066 6.984-19.507 13.306-27.698a71.811 71.811 0 0 1 10.788-11.208 72.27 72.27 0 0 1 5.808-4.399c2.02-1.368 4.416-2.934 6.76-3.637.559-.167 1.026.595.581.997-1.742 1.574-3.899 2.831-5.785 4.241-2.076 1.552-4.085 3.172-5.994 4.926a73.92 73.92 0 0 0-9.74 10.945c-5.829 8.013-9.984 17.148-12.11 26.828-.517 2.349-4.178 1.358-3.614-.995zM894.173 657.174c1.07-.561 2.559-.369 3.734-.259 1.178.11 2.355.296 3.502.589 1.111.283 2.19.663 3.231 1.144 1.108.512 2.359 1.067 3.059 2.099.586.864-.176 2.352-1.274 2.22-.426-.051-.771-.091-1.162-.276-.24-.114-.47-.247-.709-.363a12.714 12.714 0 0 0-1.054-.467 24.674 24.674 0 0 0-2.925-.957 20.117 20.117 0 0 0-1.459-.31 10.336 10.336 0 0 0-1.209-.153 19.472 19.472 0 0 0-1.489-.07c-.602-.005-1.271.117-1.841-.105-.638-.247-1.126-.688-1.212-1.406-.077-.643.203-1.369.808-1.686z"/><path fill="#FFF" d="M870.032 629.714a5.911 5.911 0 0 1-1.516-.481c-.591-.296-1.035-.715-1.331-1.257 0-.592.27-.887.813-.887.542 0 1.232.173 2.07.517.788.395 1.453.592 1.996.592 1.084 0 2.082-.443 2.995-1.331.911-.887 1.614-2.045 2.107-3.475.985-2.81 1.479-5.298 1.479-7.468 0-2.415-.345-4.855-1.035-7.32a35.87 35.87 0 0 0-2.736-6.951c-.247-.541-.666-1.355-1.257-2.44-1.233-2.464-2.17-4.387-2.81-5.767a32.719 32.719 0 0 1-1.701-4.584c-.691-2.219-1.035-4.609-1.035-7.172 0-1.627.259-3.191.776-4.695a9.638 9.638 0 0 1 2.477-3.882c1.232-1.134 2.612-1.701 4.141-1.701.591 0 1.305.234 2.144.702.837.469 1.257.924 1.257 1.368 0 .395-.148.592-.443.592-.296 0-.691-.123-1.183-.37-.444-.246-.863-.369-1.257-.369-1.134 0-2.133.419-2.994 1.257-.863.839-1.492 1.874-1.886 3.106-.345 1.035-.517 2.169-.517 3.401 0 1.923.246 3.907.739 5.952a29.522 29.522 0 0 0 1.997 5.731l2.588 5.398.74 1.552c1.035 2.12 1.836 3.871 2.403 5.25.566 1.381 1.047 2.934 1.442 4.658.542 2.318.813 4.536.813 6.655 0 2.86-.74 5.767-2.218 8.725-.74 1.43-1.726 2.588-2.958 3.475-1.233.887-2.588 1.331-4.067 1.331-.887-.001-1.565-.038-2.033-.112zM893.286 627.459c-.247 0-.444.026-.592.074h-.591c-1.085 0-1.775-.246-2.071-.74 0-.344.197-.64.592-.887l.369-.37h2.145l.296-.296.148-.666.074-.887c0-3.006-.074-5.693-.222-8.06l-.148-2.735-.148-5.398c0-1.922.074-4.806.222-8.651l.148-8.577c0-3.746-.124-6.605-.37-8.577-.444-.148-1.183-.222-2.219-.222l-.813.074a5.897 5.897 0 0 1-.961.074c-.937 0-1.405-.418-1.405-1.257 0-.196.222-.394.666-.591.443-.197.813-.296 1.109-.296 1.873 0 3.745.1 5.62.296 1.133.05 2.267.271 3.401.666.887.296 1.331.715 1.331 1.257 0 .099-.074.296-.222.592l-1.701.148c-.345-.296-1.061-.444-2.144-.444l-.37.222c.148.444.222 1.751.222 3.919 0 3.253-.025 6.187-.074 8.799l-.148 8.799c0 2.218.098 4.905.296 8.059.148 3.599.222 6.311.222 8.134v.961c-.05.345-.074.789-.074 1.331 0 1.134.074 1.824.222 2.07l-.074.148c0 .493.542.74 1.627.74.443 0 .813-.025 1.109-.074h1.109c1.429 0 2.144.345 2.144 1.035 0 .443-.148.802-.443 1.072-.296.271-.691.407-1.183.407-.444 0-.839-.048-1.183-.148a10.406 10.406 0 0 0-1.257-.074c-.296 0-.74.124-1.331.37-.591.296-1.035.443-1.331.443-1.135-.001-1.8-.247-1.997-.74zM912.511 627.903c-1.085-.542-1.886-1.59-2.403-3.142-.518-1.553-.974-4.03-1.368-7.431-.592-4.978-.887-8.848-.887-11.609 0-1.676.098-3.598.296-5.767l.443-4.658c.246-3.697.529-6.494.851-8.393.32-1.897 1.035-3.573 2.144-5.028 1.109-1.454 2.821-2.304 5.139-2.551.246-.048.641-.074 1.183-.074 1.527 0 2.292.345 2.292 1.035 0 .296-.16.555-.481.777a1.732 1.732 0 0 1-.998.333l-.739-.074-.666-.074c-.839 0-1.59.271-2.255.813-.666.543-1.22 1.331-1.664 2.366-1.035 2.465-1.701 4.88-1.996 7.246-.395 3.105-.642 5.817-.74 8.133l-.074 5.694c0 2.416.074 4.214.222 5.397.344.543.579 1.368.702 2.477.123 1.109.233 2.625.333 4.547.098 1.726.32 3.192.666 4.399.344 1.209.961 2.206 1.849 2.995.985.839 2.341 1.257 4.067 1.257 1.429 0 2.44-.788 3.031-2.366a15.826 15.826 0 0 0 1.183-5.176c.148-2.218.222-4.091.222-5.62v-4.067c-.493-.492-1.356-.74-2.588-.74h-.592a4.1 4.1 0 0 1-.813.074c-1.183 0-1.775-.296-1.775-.887 0-.837.591-1.257 1.775-1.257.838 0 1.527.025 2.07.074l1.627.074c.935.148 1.675.321 2.218.517.592.198.887.469.887.813 0 .642-.148 1.553-.444 2.736-.247 1.38-.369 2.318-.369 2.81 0 2.07.049 3.944.148 5.619.049 1.727.074 3.623.074 5.693-2.514 2.564-5.028 3.845-7.542 3.845-2.268.003-3.945-.268-5.028-.81zM951.884 628.051c-.174-.296-.333-.74-.481-1.331a3.204 3.204 0 0 0-.296-1.035l.074-.222c-.395-2.317-1.233-5.15-2.514-8.503l-1.331-3.845c-.099-.099-.567-1.355-1.405-3.771l-.592-1.775c-4.437-13.703-7.222-21.122-8.355-22.256-.395 1.331-.592 3.057-.592 5.176 0 1.135.025 2.12.074 2.958l.074 2.884-.074 1.775a19.44 19.44 0 0 0-.074 1.774c0 1.085.049 2.022.148 2.81l.148 2.366h-.222c0 8.233.172 12.768.517 13.605v6.655c.196.395.296.912.296 1.553 0 .395-.136.739-.407 1.035a1.302 1.302 0 0 1-.998.443c-1.035 0-1.553-1.331-1.553-3.993l.148-2.366c.099-.739.148-1.552.148-2.44 0-2.366-.075-5.916-.222-10.648-.148-4.732-.222-8.281-.222-10.647 0-1.429.074-3.623.222-6.581.148-2.908.222-5.076.222-6.507v-.961c0-2.415.443-3.993 1.331-4.733l.222.222.74-.148c.197.049.418.197.666.443.197.198.296.419.296.666l.148.443c0 .1.025.222.074.37.788 3.501 2.563 8.405 5.324 14.714 2.81 6.655 4.559 11.067 5.25 13.236a81.661 81.661 0 0 1 1.183 4.584c.936 4.19 2.045 7.419 3.328 9.686l.148-.222c1.133-10.943 1.701-24.375 1.701-40.298l-.074-.887a5.094 5.094 0 0 1-.074-.962c0-1.035.344-1.552 1.035-1.552.444 0 .825.222 1.146.666.32.443.481.937.481 1.478v4.954l-.369.592c0 4.684-.271 12.374-.813 23.07-.543 10.697-1.061 16.514-1.553 17.45l-1.257.296v.074l-.074-.074-.74.222c-.397 0-.68-.148-.852-.443zM987.337 628.864c-.987-.494-1.8-1.134-2.44-1.922-.641-.74-1.208-1.651-1.7-2.736a21.465 21.465 0 0 1-1.183-3.254c-.493-1.675-.863-3.771-1.109-6.285l-.148-2.292c0-.492-.013-.813-.037-.961a2.198 2.198 0 0 1-.037-.296c-.247-2.415-.555-7.738-.925-15.972-.369-8.232-.555-14.64-.555-19.224V574.812c0-1.281.37-1.922 1.109-1.922 1.036 0 1.553.592 1.553 1.775v.518l-.074.592c0 5.719.172 12.484.518 20.297.344 7.813.69 13.446 1.035 16.896a47.558 47.558 0 0 0 1.257 6.655c.394 1.528.825 2.81 1.294 3.845.468 1.035 1.072 1.898 1.811 2.588.887.789 1.749 1.183 2.588 1.183.838 0 1.59-.197 2.255-.592a3.982 3.982 0 0 0 1.516-1.552c.344-.542.628-1.244.851-2.107a13.32 13.32 0 0 0 .407-2.477c.048-.492.074-1.305.074-2.44v-8.429c0-3.746-.1-8.355-.296-13.827l-.296-9.464-.148-6.285c-.148-2.76-.222-4.855-.222-6.285 0-.542.148-.961.443-1.257.296-.296.64-.443 1.035-.443.394 0 .727.148.998.443.27.296.407.715.407 1.257v5.62c0 2.465.024 4.684.074 6.655v6.655c0 4.782.049 8.972.148 12.57.049 3.649.074 7.739.074 12.275 0 1.233-.05 2.317-.148 3.253-.1.937-.296 1.922-.592 2.958-.296 1.183-.702 2.181-1.22 2.995a6.689 6.689 0 0 1-2.034 2.034c-.937.542-1.972.813-3.106.813a7.086 7.086 0 0 1-3.177-.745zM1009.075 629.086c-.543-3.105-.813-6.655-.813-10.648 0-1.577.074-3.869.222-6.876l.148-6.876c-.345-.69-.517-1.257-.517-1.701.492-.788.74-3.056.74-6.803 0-8.971-.124-13.753-.37-14.344.444-1.232.788-1.849 1.035-1.849h3.254c.542 0 1.318.259 2.329.776 1.01.518 1.86 1.072 2.551 1.664 1.232 1.134 1.849 4.042 1.849 8.725 0 2.514-.074 4.437-.222 5.767-.1.937-.259 1.677-.481 2.219-.222.543-.555 1.159-.998 1.849-.74 1.134-1.996 2.12-3.771 2.958-.74.395-1.775.789-3.105 1.183v8.799c0 1.233.123 3.648.37 7.246l.148 2.366.148 4.806c0 .887-.469 1.331-1.405 1.331l-1.112-.592zm5.989-28.468c.344-.492.666-1.158.961-1.996.296-.838.492-1.651.592-2.44.296-1.429.443-3.08.443-4.954v-1.996c0-.69-.025-1.355-.074-1.996a11.085 11.085 0 0 0-.296-1.848c-.198-.64-.457-1.17-.776-1.59-.321-.418-.752-.777-1.294-1.072-.592-.296-1.307-.443-2.144-.443-.592 0-1.011.148-1.257.443-.247.296-.37.813-.37 1.553 0 1.183.074 2.957.222 5.323l.148 5.324c0 1.283-.05 2.44-.148 3.475l-.148 3.475.517.739c1.43-.001 2.638-.666 3.624-1.997z"/><path fill="#D94559" d="M1292.107 622.986c.406.655.535 1.444.345 2.221a2.893 2.893 0 0 1-2.02 2.111l-9.787 2.854a2.892 2.892 0 0 1-2.838-.694 2.895 2.895 0 0 1-.818-2.804l2.422-9.903a2.893 2.893 0 0 1 2.02-2.111 2.892 2.892 0 0 1 2.837.694l7.366 7.049c.185.177.343.373.473.583zm-12.809 4.702c.036.058.075.1.102.126a.607.607 0 0 0 .6.147l9.787-2.854a.607.607 0 0 0 .427-.447.605.605 0 0 0-.173-.593l-7.366-7.049a.606.606 0 0 0-.6-.147.607.607 0 0 0-.427.446l-2.421 9.903a.593.593 0 0 0 .071.468zM102.891 593.017c.406.655.535 1.444.345 2.221a2.893 2.893 0 0 1-2.02 2.111l-9.787 2.854a2.892 2.892 0 0 1-2.838-.694 2.895 2.895 0 0 1-.818-2.804l2.421-9.903a2.893 2.893 0 0 1 2.02-2.111 2.892 2.892 0 0 1 2.837.694l7.366 7.049c.186.178.345.373.474.583zm-12.809 4.703c.036.058.075.1.102.126a.608.608 0 0 0 .601.147l9.787-2.854a.605.605 0 0 0 .427-.447.605.605 0 0 0-.173-.593l-7.366-7.049a.606.606 0 0 0-.6-.147.61.61 0 0 0-.428.446l-2.421 9.903a.594.594 0 0 0 .071.468z"/><path fill="#FFB86B" d="m1238.225 741.879 3.6-3.6a2.093 2.093 0 0 0-2.959-2.959l-3.6 3.6-3.6-3.6a2.093 2.093 0 0 0-2.959 2.959l3.6 3.6-3.594 3.594a2.09 2.09 0 0 0 1.479 3.572c.535 0 1.071-.204 1.48-.613l3.594-3.594 3.594 3.594c.408.409.944.613 1.48.613s1.071-.204 1.479-.613a2.09 2.09 0 0 0 0-2.959l-3.594-3.594zM68.172 435.298l3.6-3.6a2.093 2.093 0 0 0-2.959-2.959l-3.6 3.6-3.6-3.6a2.093 2.093 0 0 0-2.959 2.959l3.6 3.6-3.594 3.594a2.093 2.093 0 1 0 2.96 2.959l3.594-3.594 3.594 3.594c.408.409.944.613 1.48.613a2.09 2.09 0 0 0 1.48-3.572l-3.596-3.594z"/><path fill="#2363A8" d="M1222.855 522.971c-4.534 0-8.223-3.689-8.223-8.223 0-4.534 3.689-8.223 8.223-8.223 4.534 0 8.223 3.689 8.223 8.223 0 4.534-3.689 8.223-8.223 8.223zm0-13.872a5.657 5.657 0 0 0-5.65 5.65c0 3.115 2.535 5.65 5.65 5.65s5.65-2.535 5.65-5.65a5.656 5.656 0 0 0-5.65-5.65zM152.509 262.337c-4.534 0-8.223-3.689-8.223-8.223 0-4.534 3.689-8.223 8.223-8.223 4.534 0 8.223 3.689 8.223 8.223 0 4.534-3.689 8.223-8.223 8.223zm0-13.873a5.657 5.657 0 0 0-5.65 5.65 5.657 5.657 0 0 0 5.65 5.65 5.657 5.657 0 0 0 5.65-5.65 5.657 5.657 0 0 0-5.65-5.65z"/></svg>